<svg xmlns="http://www.w3.org/2000/svg" viewBox="0 0 80 80">
    <defs>
        <style>.cls-1{fill:#5ffb91;stroke-width:3px;}.cls-1,.cls-2{stroke:#3f3fba;stroke-miterlimit:5;}.cls-2{fill:#3f3fba;stroke-width:2px;}.cls-3{fill:none;}</style>
    </defs>
    <title>Asset 1</title>
    <g>
        <rect class="cls-1" x="4.83" y="22.26" width="70.34" height="35.49" rx="17.74"/>
        <path class="cls-2" d="M14.15,46.36l1.59-1.63a3.46,3.46,0,0,0,3.11,1.84,3,3,0,0,0,2.32-1.11,6.11,6.11,0,0,0,1.38-2.94L24.64,32a6,6,0,0,0-.79-.09,4,4,0,0,0-3.05,1.3,4.57,4.57,0,0,0-1.21,3.24L17.43,37.5a6.39,6.39,0,0,1,2.48-4.82,9.67,9.67,0,0,1,6-1.71h.9a64.37,64.37,0,0,1,3,11.74L37.1,31l2.37-.28-.84,3.56-1.81,9.06a10.41,10.41,0,0,0-.24,1.93c0,.65.4,1,1.19,1a13.88,13.88,0,0,0,1.58-.12l-.15.71-5.48,1.09L36.6,33.45,29,45.6l-1.14.18v-.32a35.84,35.84,0,0,0-2.12-10.77l-.91,4.53q-1.66,8.37-7.25,8.37A5.24,5.24,0,0,1,14.15,46.36Z"/>
        <path class="cls-2" d="M49.4,44l-.2,1c-1.61,1.74-3.07,2.61-4.35,2.61-1.07,0-1.6-.56-1.6-1.68a10.81,10.81,0,0,1,.25-1.86l.77-3.86a14.46,14.46,0,0,0,.31-2.19q0-.93-.72-.93a7.87,7.87,0,0,0-1.79.38l.14-.68,5.42-1.77-.84,3.55L45.7,44.1a11.09,11.09,0,0,0-.25,1.64c0,.48.21.72.65.72C46.83,46.46,47.93,45.64,49.4,44ZM45.33,33.14l.75-1.51,3.12-2-1,2Z"/>
        <path class="cls-2" d="M59,41.36h-.2a15.09,15.09,0,0,1-3,4.54,4.94,4.94,0,0,1-3.3,1.76c-1.56,0-2.34-1-2.34-2.93a9.86,9.86,0,0,1,2.57-6.32,8.16,8.16,0,0,1,6.5-3.21c1.06,0,2.16,0,3.32.14l-.8,3.28L60.69,44.1a11,11,0,0,0-.25,1.66c0,.46.22.7.65.7.74,0,1.84-.82,3.31-2.44l-.2,1q-2.43,2.61-4.37,2.61c-1.07,0-1.61-.56-1.61-1.68a10.9,10.9,0,0,1,.27-1.88Zm.9-4.44a6.88,6.88,0,0,0-2.76-.62c-1.35,0-2.43.85-3.23,2.55a12.9,12.9,0,0,0-1.42,5.42q0,1.74,1,1.74c.64,0,1.55-.66,2.74-2a22.24,22.24,0,0,0,3.14-4.57Z"/>
        <rect class="cls-3" width="80" height="80"/>
    </g>
</svg>
