<!--
  - Copyright (c) 2016-2023 Vladimir Schneider <vladimir.schneider@gmail.com>
  -
  - Licensed under the Apache License, Version 2.0 (the "License");
  - you may not use this file except in compliance with the License.
  - You may obtain a copy of the License at
  -
  - http://www.apache.org/licenses/LICENSE-2.0
  -
  - Unless required by applicable law or agreed to in writing, software
  - distributed under the License is distributed on an "AS IS" BASIS,
  - WITHOUT WARRANTIES OR CONDITIONS OF ANY KIND, either express or implied.
  - See the License for the specific language governing permissions and
  - limitations under the License.
  -
  -->

<svg xmlns="http://www.w3.org/2000/svg" viewBox="0 0 40 40">
    <defs>
        <style>.cls-1{fill:#58D079;stroke-width:1.5px;}.cls-1,.cls-2{stroke:#4B4BDB;stroke-miterlimit:10;}.cls-2{fill:#4B4BDB;}.cls-3{fill:none;}</style>
    </defs>
    <title>Asset 2</title>
    <g>
        <rect class="cls-1" x="2.41" y="11.13" width="35.17" height="17.74" rx="8.87"/>
        <path class="cls-2" d="M7.08,23.18l.79-.82a1.72,1.72,0,0,0,1.56.92,1.54,1.54,0,0,0,1.16-.55,3,3,0,0,0,.68-1.47L12.32,16a2.75,2.75,0,0,0-.39,0,2,2,0,0,0-1.53.65,2.31,2.31,0,0,0-.61,1.62l-1.07.53A3.19,3.19,0,0,1,10,16.34a4.85,4.85,0,0,1,3-.86h.45a31.21,31.21,0,0,1,1.5,5.87l3.64-5.87,1.18-.14-.42,1.78-.9,4.53a5.35,5.35,0,0,0-.12,1c0,.32.2.49.6.49a6.87,6.87,0,0,0,.78-.06l-.07.35-2.74.54.9-4.53a.5.5,0,0,0-.91-.36L14.51,22.8l-.58.09v-.16a17.93,17.93,0,0,0-1-5.38l-.46,2.26q-.83,4.18-3.63,4.18A2.58,2.58,0,0,1,7.08,23.18Z"/>
        <path class="cls-2" d="M24.7,22l-.1.51a3.29,3.29,0,0,1-2.18,1.31c-.53,0-.8-.28-.8-.84a6.15,6.15,0,0,1,.13-.93l.38-1.93A6.86,6.86,0,0,0,22.29,19c0-.31-.12-.47-.36-.47a3.6,3.6,0,0,0-.89.19l.06-.34,2.71-.89-.42,1.78-.54,2.74a6.92,6.92,0,0,0-.13.82q0,.36.33.36C23.42,23.23,24,22.82,24.7,22Zm-2-5.44.37-.75,1.56-1-.47,1Z"/>
        <path class="cls-2" d="M29.52,20.68h-.1A7.55,7.55,0,0,1,27.91,23a2.5,2.5,0,0,1-1.65.88q-1.17,0-1.17-1.47a4.92,4.92,0,0,1,1.29-3.16,4.09,4.09,0,0,1,3.25-1.6c.52,0,1.08,0,1.65.07l-.4,1.64-.53,2.74a5.12,5.12,0,0,0-.13.83c0,.23.11.35.33.35s.92-.41,1.65-1.22l-.1.51a3.31,3.31,0,0,1-2.18,1.31q-.81,0-.81-.84a5.36,5.36,0,0,1,.13-.94ZM30,18.46a3.29,3.29,0,0,0-1.38-.31c-.67,0-1.21.43-1.61,1.28a6.47,6.47,0,0,0-.71,2.71q0,.87.51.87c.32,0,.77-.34,1.37-1a11.16,11.16,0,0,0,1.57-2.29Z"/>
        <rect class="cls-3" width="40" height="40"/>
    </g>
</svg>
